Coordinates
version=1
nRows=10
nColumns=34
inDegrees=yes

Units are S.I. units (second, meters, Newtons, ...)
If the header above contains a line with 'inDegrees', this indicates whether rotational values are in degrees (yes) or radians (no).

endheader
time	pelvis_tilt	pelvis_list	pelvis_rotation	pelvis_tx	pelvis_ty	pelvis_tz	hip_flexion_r	hip_adduction_r	hip_rotation_r	knee_angle_r	ankle_angle_r	subtalar_angle_r	mtp_angle_r	hip_flexion_l	hip_adduction_l	hip_rotation_l	knee_angle_l	ankle_angle_l	subtalar_angle_l	mtp_angle_l	lumbar_extension	lumbar_bending	lumbar_rotation	arm_flex_r	arm_add_r	arm_rot_r	elbow_flex_r	pro_sup_r	arm_flex_l	arm_add_l	arm_rot_l	elbow_flex_l	pro_sup_l
      1.16666670	     27.81052761	      0.81400064	      1.47338906	      0.28566409	      0.68753161	     -0.14894806	     62.26796364	     -8.53569443	     -1.28208869	     98.26690600	      4.11707257	    -28.48462889	      0.00000000	     63.25544072	     -7.37379518	      0.91290887	     99.45884793	      8.37510118	    -11.52376188	      0.00000000	    -51.17173995	      1.44299404	     -3.30104880	      8.77178861	     -8.54241075	     -5.85455945	     48.49000768	     94.80356975	     12.75148388	    -11.79920587	      2.70360210	     33.42099756	     76.42644496
      1.18333330	     27.56234394	      0.83491795	      1.38229510	      0.29404978	      0.68932067	     -0.14534486	     62.36018517	     -8.28063081	     -1.14806433	     98.40834031	      4.31705150	    -28.41174149	      0.00000000	     63.25298215	     -7.68462616	      0.86212456	     99.51083513	      8.37835786	    -11.67873873	      0.00000000	    -50.97834108	      1.20604959	     -2.78773361	      8.86272894	     -8.90020819	     -5.79729625	     49.00779672	     95.12666082	     13.11657857	    -11.71540792	      2.55061491	     34.02673568	     76.78342717
      1.20000000	     27.27809846	      0.88729550	      1.51814813	      0.29308163	      0.68454974	     -0.14512169	     62.80538544	     -8.31549938	     -1.09898840	     98.77892521	      4.40984780	    -28.68257661	      0.00000000	     63.61632596	     -7.66528609	      1.02163566	     99.87675894	      9.13998239	    -10.96305549	      0.00000000	    -50.67700620	      1.07635145	     -2.49181643	      9.05699018	     -9.19556868	     -5.76556014	     49.20463506	     95.38995793	     13.66739393	    -11.68008099	      2.36363249	     34.53132750	     77.09670938
      1.21666670	     27.10132246	      0.90042726	      1.74166196	      0.29174209	      0.68475989	     -0.14539454	     63.06098962	     -8.31364012	     -1.06636995	     98.95042014	      4.46209963	    -28.70278935	      0.00000000	     63.87140549	     -7.74710788	      0.93404753	     99.83728743	      9.23444908	    -10.95812375	      0.00000000	    -50.71209816	      0.98587125	     -2.36577265	      9.78534321	     -9.41174986	     -5.80171934	     49.37456253	     95.43475616	     14.32132788	    -11.81496099	      2.29625143	     34.74443963	     77.15592300
      1.23333330	     26.83557572	      0.89215079	      1.83410489	      0.28260293	      0.68252956	     -0.14874583	     63.53565545	     -8.30764837	     -0.99684872	     98.76525752	      4.53955675	    -28.70693745	      0.00000000	     64.51695927	     -7.58958712	      0.77752198	     99.81543417	      9.14098693	    -11.00147935	      0.00000000	    -50.97083090	      0.91403194	     -2.19790392	     10.86642593	     -9.78612151	     -5.82897043	     49.62544080	     95.48931892	     15.35349189	    -11.92570523	      2.22852900	     35.11344576	     77.23105951
      1.25000000	     26.54978984	      0.85512190	      2.02491260	      0.28289037	      0.68269290	     -0.14889759	     63.96995826	     -8.35758748	     -0.91684790	     98.52290102	      4.59712137	    -28.65658539	      0.00000000	     64.94864367	     -7.44511126	      0.69373034	     99.53492039	      8.96909264	    -11.08522078	      0.00000000	    -51.15412986	      0.94536188	     -2.03118886	     11.64734370	    -10.12969518	     -5.81367990	     49.76610207	     95.54777700	     16.28581834	    -11.97695905	      2.18162824	     35.52858173	     77.31056878
      1.26666670	     25.76440820	      0.72107806	      2.08348860	      0.29435356	      0.68050193	     -0.14542708	     64.84846290	     -8.26470920	     -1.02165267	     98.88740339	      5.15256367	    -28.49919821	      0.00000000	     65.90081010	     -7.42904432	      1.05597277	     99.85324536	      8.39112581	    -11.63853320	      0.00000000	    -50.92243259	      0.91088500	     -1.49177049	     11.73979046	    -11.19345648	     -4.63832709	     50.65847788	     96.92920415	     16.31800979	    -12.06878206	      1.73732774	     37.73790257	     79.35061627
      1.28333330	     25.13127631	      0.63221522	      1.79673282	      0.29571439	      0.68012898	     -0.14631027	     65.43634295	     -7.84445185	     -0.94667389	     99.15372953	      5.51859914	    -28.49863055	      0.00000000	     66.58400792	     -7.53623271	      1.20220340	    100.09573081	      8.98050736	    -11.36012527	      0.00000000	    -50.59153281	      0.67356918	     -0.97667376	     12.16995977	    -11.51097958	     -4.81303143	     50.37174072	     97.12506714	     16.91317308	    -12.08847870	      1.23294789	     38.58957269	     79.67072411
      1.30000000	     24.61298376	      0.51834798	      1.72482360	      0.29725696	      0.67943265	     -0.14643256	     65.84438140	     -7.66532238	     -1.00431689	     99.36182146	      6.07101645	    -28.55708134	      0.00000000	     67.12545367	     -7.49259728	      1.50406333	    100.27065645	      9.55808370	    -10.99089374	      0.00000000	    -50.56446608	      0.71656854	     -2.07021524	     13.56258942	    -11.29969112	     -3.95750339	     49.65358017	     99.90626935	     16.41158362	    -12.06704524	     -4.75227038	     42.34887428	     85.53800374
      1.31666670	     24.29709529	      0.52412104	      1.63880407	      0.29677454	      0.67947297	     -0.14644151	     66.07022791	     -7.56477189	     -0.99993669	     99.34119323	      6.37005780	    -28.73327091	      0.00000000	     67.31667750	     -7.38035945	      1.56795918	    100.21154393	      9.89345468	    -11.07702814	      0.00000000	    -50.57857090	      0.62986527	     -2.11606730	     14.18205356	    -11.40973078	     -3.98821072	     49.83259829	     99.91471707	     17.65642151	    -12.47963022	     -4.86979533	     42.87460192	     85.57827998
